<svg version="1.1" xmlns="http://www.w3.org/2000/svg" xmlns:xlink="http://www.w3.org/1999/xlink" width="512" height="512" viewBox="0 0 512 512">
	<path d="M89.754 32.41h336.128v31.099h-336.128v-31.099z" />
	<path d="M36.035 89.826h31.068v335.175h-31.068v-335.175z" />
	<path d="M83.712 446.71h339.763v31.099h-339.763v-31.099z" />
	<path d="M450.325 89.374h31.058v335.175h-31.058v-335.175z" />
	<path d="M85.043 33.853h5.192v31.078h-5.192v-31.078z" />
	<path d="M83.938 80.609h-63.058l5.12 5.12v-63.058l-5.12 5.12h63.058l-5.12-5.12v63.058l5.12-5.12zM83.938 17.552h-68.178v73.298h73.298v-73.298h-5.12z" />
	<path d="M493.497 80.128h-63.038l5.12 5.12v-63.058l-5.12 5.12h63.038l-5.12-5.12v63.058l5.12-5.12zM493.497 17.070h-68.157v73.298h73.278v-73.298h-5.12z" />
	<path d="M81.541 484.69h-63.047l5.12 5.12v-63.038l-5.12 5.12h63.047l-5.12-5.12v63.038l5.12-5.12zM81.541 421.652h-68.168v73.277h73.287v-73.278h-5.12z" />
	<path d="M491.1 484.229h-63.058l5.12 5.12v-63.058l-5.12 5.12h63.058l-5.12-5.12v63.058l5.12-5.12zM491.1 421.171h-68.178v73.298h73.298v-73.298h-5.12z" />
</svg>
