<svg version="1.1" id="Layer_1" xmlns="http://www.w3.org/2000/svg" xmlns:xlink="http://www.w3.org/1999/xlink" x="0px" y="0px"
	 width="262.142px" height="262.146px" viewBox="0.642 -295.58 262.142 262.146"
	 enable-background="new 0.642 -295.58 262.142 262.146" xml:space="preserve">
		<path fill="#FF2D55" d="M180.857-279.197l-81.91,81.924H49.78L0.642-131.741c0,0,52.064-14.506,82.442-7.699l-8.232,5.605
			l28.141,25.354l5.645-8.961c15.075,34.472-9.688,84.009-9.688,84.009l65.529-49.152v-49.156l81.91-81.921l16.396-81.917
			L180.857-279.197z"/>
	<path fill="#FF2D55" d="M21.302-47.053c0,0,54.315-16.649,64.706-27.034c10.441-10.434,10.441-27.27,0-37.704
		c-10.39-10.409-27.257-10.419-37.668,0C37.95-101.353,21.302-47.053,21.302-47.053z"/>
</svg>
