<?xml version="1.0" encoding="utf-8"?>
<!-- Generator: Adobe Illustrator 16.0.0, SVG Export Plug-In . SVG Version: 6.00 Build 0)  -->
<!DOCTYPE svg PUBLIC "-//W3C//DTD SVG 1.1//EN" "http://www.w3.org/Graphics/SVG/1.1/DTD/svg11.dtd">
<svg version="1.1" id="Layer_1" xmlns="http://www.w3.org/2000/svg" xmlns:xlink="http://www.w3.org/1999/xlink" x="0px" y="0px"
	 width="411.12px" height="411.12px" viewBox="350.723 -46.575 411.12 411.12"
	 enable-background="new 350.723 -46.575 411.12 411.12" xml:space="preserve">
<circle fill="#FF2D55" cx="556.283" cy="158.985" r="205.56"/>
<g>
	<g>
		<path fill="#FFFFFF" d="M605.426,54.384l-81.91,81.924h-49.167l-49.138,65.532c0,0,52.065-14.506,82.443-7.7l-8.233,5.606
			l28.142,25.354l5.644-8.961c15.076,34.471-9.688,84.008-9.688,84.008l65.528-49.152v-49.156l81.912-81.92L687.354,38
			L605.426,54.384z"/>
	</g>
	<path fill="#FFFFFF" d="M445.872,286.527c0,0,54.315-16.648,64.706-27.033c10.441-10.434,10.441-27.27,0-37.705
		c-10.39-10.408-27.257-10.418-37.668,0C462.52,232.228,445.872,286.527,445.872,286.527z"/>
</g>
</svg>
