<svg version="1.1" id="Layer_1" xmlns="http://www.w3.org/2000/svg" xmlns:xlink="http://www.w3.org/1999/xlink" x="0px" y="0px"
	 width="1102.445px" height="397.425px" viewBox="0.642 -295.58 1102.445 397.425"
	 enable-background="new 0.642 -295.58 1102.445 397.425" xml:space="preserve">
<g>
	<path fill="#231F20" d="M256.235,0.933c0.286,0.861,0.862,2.294,1.719,2.58c5.161,3.73,11.754,5.445,18.923,5.445
		c6.88,0,15.195-1.715,20.07-5.731c4.296-3.441,6.88-8.598,6.88-15.479c0-14.336-7.17-17.199-29.527-25.518
		c-28.954-10.888-51.315-28.379-51.315-56.473c0-17.773,8.311-32.682,19.496-42.716c12.614-11.469,33.54-18.347,61.06-18.347
		c16.34,0,31.536,2.292,38.129,5.16c1.719,17.488,3.151,34.974,4.3,52.462c-8.889,1.432-19.496,2.582-29.529,3.723l-6.594-26.661
		c-0.28-0.861-0.568-1.433-1.145-2.006c-3.442-2.867-8.89-4.588-14.333-4.588c-6.879,0-12.617,1.721-17.2,5.162
		c-3.729,2.868-7.74,8.312-7.74,16.341c0,14.336,6.308,17.2,32.678,26.375c31.825,10.896,48.161,26.661,48.161,53.897
		c0,18.06-7.453,34.972-21.211,45.871c-13.76,10.895-32.684,16.34-60.491,16.34c-12.04,0-32.393-1.433-44.148-5.732
		c-2.292-18.062-4.301-35.836-6.307-53.321c9.177-2.008,20.352-4.013,30.101-5.159L256.235,0.933z"/>
	<path fill="#231F20" d="M371.769,78.339l13.764-1.151c0.574,0,1.146-0.861,1.146-1.433l0.287-138.173l-18.348-0.576
		c0-7.739,0.288-16.053,0.574-23.505c13.763-1.433,57.048-8.885,58.48-8.885c0.567,0,0.567,0,0.567,0.572
		c1.149,5.162,2.01,10.607,3.15,15.77l1.72,0.284c28.955-15.479,32.396-16.339,44.149-16.339
		c23.793-0.286,43.86,26.662,43.575,56.474c0,13.186-3.152,26.372-8.602,38.414c-4.016,8.604-10.608,19.206-22.076,27.812
		c-5.73,4.298-19.204,9.168-30.672,9.168c-10.896,0-18.922-1.433-25.229-4.013l-2.01,0.576c0.287,14.332,0.287,28.951,0.287,43.574
		l23.505,0.571c0,8.024-0.286,16.341-0.572,23.795c-13.763,0-30.959,0-46.154,0.285c-11.466,0-26.661,0-37.841,0.286
		C371.482,94.1,371.482,85.792,371.769,78.339z M467.523-54.392c-2.297-3.445-6.025-7.454-11.469-7.454
		c-5.731,0-14.05,2.866-22.36,8.025c-0.286,16.052-0.573,38.703-0.573,54.762c0,5.728,11.473,10.03,17.491,10.03
		c5.16,0,11.181-2.004,14.618-7.454c4.016-6.021,6.593-16.051,6.593-31.245C471.819-41.207,470.101-50.384,467.523-54.392z"/>
	<path fill="#231F20" d="M535.751,10.392l13.762-0.861c0.574,0,1.147-0.572,1.147-1.144c0-43.862,0-100.051,0-142.767l-18.349-0.573
		c0-8.026,0.288-16.914,0.574-24.367c16.34-1.437,61.638-7.452,64.5-7.452c0.575,0,0.865,0.286,0.865,1.145
		c0,23.795-0.865,55.617-1.151,84.855l1.438,0.288c28.094-13.759,32.968-14.618,44.145-14.618c12.038,0,26.947,11.466,33.829,23.507
		c2.865,5.159,4.298,12.042,4.298,21.21c0,17.778-0.57,40.136-0.86,59.918l14.618,0.571c0,7.744,0,16.341-0.289,23.792
		c-10.319,0-24.076,0-35.259,0c-12.033,0-25.799,0.29-36.697,0.29c0-7.458,0-15.766,0.29-23.795l10.033-0.572
		c0.571-0.286,0.865-0.861,0.865-1.429c0.281-12.618,0-30.677,0-41.854c0-11.181,0.281-18.345-2.584-23.223
		c-2.58-4.017-5.73-5.731-11.182-5.731c-6.592,0-15.197,3.727-22.072,8.315c-0.289,17.484-0.575,46.153-0.575,63.634l13.188,0.865
		c0,7.743,0,16.051-0.57,23.509c-10.609,0-24.938,0-37.842,0c-11.753,0-25.229,0.286-36.409,0.286
		C535.46,26.446,535.46,17.85,535.751,10.392z"/>
	<path fill="#231F20" d="M706.608-62.998c0-7.743,0.288-16.626,0.57-24.366c15.484-1.145,61.927-7.738,64.222-7.738
		c0.57,0,0.57,0.286,0.57,0.859c-0.29,30.963-0.86,75.107-0.86,103.776l15.762,0.571c0,8.03,0,16.051,0,23.792
		c-10.888,0-27.229,0-39.562,0c-12.039,0-27.234,0.29-38.986,0.29c0-7.744,0-16.341,0.288-23.795l15.193-0.572
		c0.865-0.286,1.147-0.861,1.147-1.429v-70.527L706.608-62.998z M771.118-137.819c0,15.484-12.618,25.804-26.95,25.804
		c-12.331,0-24.938-10.608-24.938-25.23c0-12.04,10.601-23.792,26.369-23.792C762.23-161.038,771.118-149.857,771.118-137.819z"/>
	<path fill="#231F20" d="M890.366,23.867c-25.519,12.042-31.82,12.903-38.989,12.903c-10.887,0-22.933-3.445-33.539-13.764
		c-9.747-9.749-17.197-25.228-17.197-44.145c0-21.791,7.45-41.279,22.076-56.762c10.03-11.467,26.66-17.2,39.562-17.2
		c10.317,0,19.202,2.004,24.65,3.441l2.009-0.86c0-13.189-0.57-27.807-0.864-41.856l-21.501-0.859
		c-0.281-8.029,0-16.341,0.29-24.081c16.626-1.436,64.783-7.452,67.938-7.452c0.29,0,0.57,0.286,0.57,0.859
		c0,46.155-0.855,119.542-1.143,171.43c0,1.723,0.571,2.87,2.01,2.87l14.616-0.865c0,7.172,0.286,16.052,0,23.509
		c-3.728,1.715-28.669,5.728-47.875,5.728c-4.299-3.148-7.453-7.168-10.602-12.896H890.366L890.366,23.867z M888.361-63.283
		c-4.01-1.719-10.318-4.013-17.193-4.013c-5.45,0-11.189,2.009-14.337,7.451c-4.299,6.878-6.883,16.341-6.883,33.539
		c0,11.471,1.723,19.782,5.734,26.089c2.291,3.441,7.45,7.454,12.9,7.454c5.73,0,10.891-1.151,18.345-5.16
		c1.145-0.567,1.434-2.008,1.434-4.874C888.361-21.711,888.072-44.652,888.361-63.283z"/>
	<path fill="#231F20" d="M984.974,23.006c-13.186-11.182-21.21-26.661-21.21-48.733c0-22.648,10.037-43.001,27.234-55.616
		c12.609-9.458,29.812-13.759,47.015-13.759c15.189,0,28.09,3.441,39.275,10.322c14.621,9.458,25.799,27.514,25.799,53.039
		c0,25.224-13.758,46.725-30.669,57.62c-11.186,7.165-25.521,10.891-41.859,10.891C1013.643,36.77,996.441,32.753,984.974,23.006z
		 M1046.605,7.525c5.454-7.454,6.88-18.92,6.88-38.131c0-17.484-2.29-26.371-5.156-33.253c-3.151-6.017-8.315-8.882-13.472-8.882
		c-5.168,0-9.748,2.008-13.476,7.167c-4.588,6.879-7.454,17.774-7.454,35.258c0,21.215,2.576,30.963,6.594,36.984
		c3.727,5.736,8.024,7.744,13.185,7.744C1038.585,14.408,1043.165,12.972,1046.605,7.525z"/>
</g>
<g>
	<g>
		<path fill="#FF2D55" d="M180.857-279.197l-81.91,81.924H49.78L0.642-131.741c0,0,52.065-14.506,82.443-7.7l-8.233,5.606
			l28.141,25.353l5.644-8.961c15.076,34.472-9.688,84.009-9.688,84.009l65.529-49.152v-49.156l81.91-81.921l16.396-81.917
			L180.857-279.197z"/>
	</g>
	<path fill="#FF2D55" d="M21.302-47.053c0,0,54.315-16.649,64.706-27.034c10.441-10.434,10.441-27.27,0-37.704
		c-10.39-10.409-27.257-10.419-37.668,0C37.95-101.353,21.302-47.053,21.302-47.053z"/>
</g>
</svg>
