<svg xmlns="http://www.w3.org/2000/svg" class="max-w-full h-auto" xml:space="preserve" style="fill-rule:evenodd;clip-rule:evenodd;stroke-linejoin:round;stroke-miterlimit:2" viewBox="0 0 1050 230"><path d="M505.577 152.235h-3.792c-.152 0-.262-.034-.33-.102-.068-.068-.102-.178-.102-.33v-1.404c0-.152.034-.262.102-.33.068-.068.178-.102.33-.102h3.228c.104 0 .182-.034.234-.102a.396.396 0 0 0 .078-.246c0-.136-.026-.236-.078-.3-.052-.064-.13-.1-.234-.108l-1.8-.252c-.56-.08-1.01-.264-1.35-.552-.34-.288-.51-.768-.51-1.44v-1.26c0-.68.22-1.202.66-1.566.44-.364 1.048-.546 1.824-.546h3.36c.152 0 .262.034.33.102.068.068.102.178.102.33v1.428c0 .152-.034.262-.102.33-.068.068-.178.102-.33.102h-2.796a.295.295 0 0 0-.24.102.389.389 0 0 0-.084.258c0 .104.028.192.084.264a.321.321 0 0 0 .24.12l1.788.24c.56.08 1.012.264 1.356.552.344.288.516.768.516 1.44v1.26c0 .68-.222 1.202-.666 1.566-.444.364-1.05.546-1.818.546Zm6.084 0h-1.86c-.152 0-.262-.034-.33-.102-.068-.068-.102-.178-.102-.33v-7.776c0-.152.034-.262.102-.33.068-.068.178-.102.33-.102h3.672c1.088 0 1.832.216 2.232.648.4.432.6.996.6 1.692v1.536c0 .696-.2 1.26-.6 1.692-.4.432-1.144.648-2.232.648h-1.38v1.992c0 .152-.034.262-.102.33-.068.068-.178.102-.33.102Zm.408-6.396v1.812h1.08c.232 0 .384-.06.456-.18a.78.78 0 0 0 .108-.408v-.636a.78.78 0 0 0-.108-.408c-.072-.12-.224-.18-.456-.18h-1.08Zm7.776 6.396h-1.86c-.152 0-.262-.034-.33-.102-.068-.068-.102-.178-.102-.33v-7.776c0-.152.034-.262.102-.33.068-.068.178-.102.33-.102h1.86c.152 0 .262.034.33.102.068.068.102.178.102.33v2.604h2.004v-2.604c0-.152.034-.262.102-.33.068-.068.178-.102.33-.102h1.86c.152 0 .262.034.33.102.068.068.102.178.102.33v7.776c0 .152-.034.262-.102.33-.068.068-.178.102-.33.102h-1.86c-.152 0-.262-.034-.33-.102-.068-.068-.102-.178-.102-.33v-2.664h-2.004v2.664c0 .152-.034.262-.102.33-.068.068-.178.102-.33.102Zm7.056 0c-.152 0-.262-.034-.33-.102-.068-.068-.102-.178-.102-.33v-1.428c0-.152.034-.262.102-.33.068-.068.178-.102.33-.102h1.188v-4.032h-1.188c-.152 0-.262-.034-.33-.102-.068-.068-.102-.178-.102-.33v-1.452c0-.152.034-.262.102-.33.068-.068.178-.102.33-.102h5.112c.152 0 .262.034.33.102.068.068.102.178.102.33v1.452c0 .152-.034.262-.102.33-.068.068-.178.102-.33.102h-1.164v4.032h1.164c.152 0 .262.034.33.102.068.068.102.178.102.33v1.428c0 .152-.034.262-.102.33-.068.068-.178.102-.33.102h-5.112Zm11.496 0h-4.044c-.152 0-.262-.034-.33-.102-.068-.068-.102-.178-.102-.33v-7.776c0-.152.034-.262.102-.33.068-.068.178-.102.33-.102h4.044c1 0 1.742.2 2.226.6.484.4.726 1.016.726 1.848v3.744c0 .832-.242 1.448-.726 1.848-.484.4-1.226.6-2.226.6Zm-1.752-6.348v4.08h1.428c.192 0 .334-.048.426-.144.092-.096.138-.244.138-.444v-2.916c0-.2-.046-.346-.138-.438-.092-.092-.234-.138-.426-.138h-1.428Zm13.548 4.08c0 .368-.054.702-.162 1.002-.108.3-.3.556-.576.768-.276.212-.656.378-1.14.498-.484.12-1.098.18-1.842.18s-1.36-.06-1.848-.18-.87-.286-1.146-.498a1.671 1.671 0 0 1-.576-.768 2.944 2.944 0 0 1-.162-1.002v-4.092c0-.368.054-.702.162-1.002.108-.3.3-.558.576-.774.276-.216.658-.384 1.146-.504.488-.12 1.104-.18 1.848-.18s1.358.06 1.842.18.864.288 1.14.504c.276.216.468.474.576.774.108.3.162.634.162 1.002v4.092Zm-4.728-.432c0 .16.06.294.18.402.12.108.396.162.828.162.432 0 .708-.054.828-.162a.518.518 0 0 0 .18-.402v-3.228a.506.506 0 0 0-.18-.39c-.12-.108-.396-.162-.828-.162-.432 0-.708.054-.828.162a.506.506 0 0 0-.18.39v3.228Z" style="fill-rule:nonzero" transform="matrix(18.6556 0 0 18.0557 -9219.23 -2557.7)"/><path d="M20.66 248.527s54.315-16.649 64.706-27.034c10.441-10.434 10.441-27.27 0-37.704-10.39-10.409-27.257-10.419-37.668 0-10.39 10.438-27.038 64.738-27.038 64.738Z" style="fill:#f43f5e;fill-rule:nonzero" transform="scale(.60683 .58732) rotate(-45 207.73 226.397)"/><path d="m409.454 68.456.009 115.849-34.766 34.766 11.592 81.084s26.559-47.073 52.852-63.741l-1.858 9.786 37.826-1.972-2.345-10.327c35.035 13.715 52.553 66.254 52.553 66.254l11.58-81.092-34.759-34.758-.008-115.847L455.8-1.059l-46.346 69.515Zm46.343 98.985c8.63 0 15.636 7.006 15.636 15.636 0 8.629-7.006 15.636-15.636 15.636-8.63 0-15.636-7.007-15.636-15.636 0-8.63 7.006-15.636 15.636-15.636Zm0-50.165c8.63 0 15.636 7.007 15.636 15.636 0 8.63-7.006 15.636-15.636 15.636-8.63 0-15.636-7.006-15.636-15.636 0-8.629 7.006-15.636 15.636-15.636Zm0-50.834c8.63 0 15.636 7.006 15.636 15.636 0 8.629-7.006 15.635-15.636 15.635-8.63 0-15.636-7.006-15.636-15.635 0-8.63 7.006-15.636 15.636-15.636Z" style="fill:#f43f5e;fill-rule:nonzero" transform="matrix(.60683 0 0 .58732 -222.303 10.776)"/></svg>