<svg xmlns="http://www.w3.org/2000/svg" xml:space="preserve" style="fill-rule:evenodd;clip-rule:evenodd;stroke-linejoin:round;stroke-miterlimit:2" viewBox="0 0 263 263"><path d="M20.66 248.527s54.315-16.649 64.706-27.034c10.441-10.434 10.441-27.27 0-37.704-10.39-10.409-27.257-10.419-37.668 0-10.39 10.438-27.038 64.738-27.038 64.738Z" style="fill:#f43f5e;fill-rule:nonzero" transform="matrix(.95158 .01555 .01555 .95158 -4.708 9.737)"/><path d="m409.454 68.456.009 115.849-34.766 34.766 11.592 81.084s26.559-47.073 52.852-63.741l-1.858 9.786 37.826-1.972-2.345-10.327c35.035 13.715 52.553 66.254 52.553 66.254l11.58-81.092-34.759-34.758-.008-115.847L455.8-1.059l-46.346 69.515Zm46.343 98.985c8.63 0 15.636 7.006 15.636 15.636 0 8.629-7.006 15.636-15.636 15.636-8.63 0-15.636-7.007-15.636-15.636 0-8.63 7.006-15.636 15.636-15.636Zm0-50.165c8.63 0 15.636 7.007 15.636 15.636 0 8.63-7.006 15.636-15.636 15.636-8.63 0-15.636-7.006-15.636-15.636 0-8.629 7.006-15.636 15.636-15.636Zm0-50.834c8.63 0 15.636 7.006 15.636 15.636 0 8.629-7.006 15.635-15.636 15.635-8.63 0-15.636-7.006-15.636-15.635 0-8.63 7.006-15.636 15.636-15.636Z" style="fill:#f43f5e;fill-rule:nonzero" transform="rotate(45 335.207 -221.43) scale(.96712 .93603)"/></svg>